<svg xmlns="http://www.w3.org/2000/svg" viewBox="0 0 512 512">
  <rect width="512" height="512" rx="104" fill="#17201b"/>
  <path d="M126 236c0-78 59-139 132-139 66 0 120 45 131 108 39 10 67 45 67 87 0 50-40 90-90 90H158c-56 0-102-46-102-102 0-42 28-79 70-91v47Z" fill="#f7f8f4"/>
  <path d="M158 269c0-56 43-100 99-100s100 44 100 100-44 100-100 100-99-44-99-100Z" fill="#0f9f7a"/>
  <path d="M216 267h82M257 226v82" stroke="#17201b" stroke-width="34" stroke-linecap="round"/>
  <circle cx="358" cy="183" r="38" fill="#f6c64f"/>
  <circle cx="142" cy="336" r="32" fill="#f26d5b"/>
</svg>
